<?xml version="1.0" encoding="iso-8859-1"?>
<!-- Generator: Adobe Illustrator 21.1.0, SVG Export Plug-In . SVG Version: 6.00 Build 0)  -->
<svg version="1.1" id="Layer_1" xmlns="http://www.w3.org/2000/svg" xmlns:xlink="http://www.w3.org/1999/xlink" x="0px" y="0px"
	 viewBox="0 0 24 24" enable-background="new 0 0 24 24" xml:space="preserve">
<g>
	<path fill="#303C42" d="M23.7348633,12.5156374l-5.4472656-9.5136576c-0.265625-0.4643312-0.6953125-0.7958565-1.2099609-0.9335446
		c-0.1911449-0.0510664-0.385561-0.0737793-0.5780029-0.0673792c-0.322752,0.0107338-0.6399546,0.1020212-0.9268808,0.2690289
		L0.9916985,10.7584066c-0.637769,0.3713808-0.9946762,1.0486937-0.9916992,1.7427053
		c0.0014378,0.3351965,0.0875056,0.6742887,0.2651367,0.9846897l4.3028564,7.5142517H2.4999993
		c-0.2763672,0-0.5,0.2236195-0.5,0.4999733c0,0.2763519,0.2236328,0.4999733,0.5,0.4999733h19
		c0.2763672,0,0.5-0.2236214,0.5-0.4999733c0-0.2763538-0.2236328-0.4999733-0.5-0.4999733h-8.3818369l9.8901377-5.7575092
		C23.6463985,14.8711634,24.0030861,14.1938505,24,13.4999886C23.9985085,13.1648645,23.9124947,12.8258791,23.7348633,12.5156374z"
		/>
	<path fill="#FAFBFB" d="M1.4946282,11.6220703l14.5703745-8.4822998l-3.4546518,9.739624
		c-0.0849609,0.1713867-0.2133789,0.3125-0.3725586,0.409668c-0.1616211,0.0981445-0.3486328,0.1479492-0.4882813,0.1479492
		h-0.0014648L1.1404412,12.008728C1.2244256,11.8555908,1.3338616,11.7156982,1.4946282,11.6220703z"/>
	<path fill="#F3F3F3" d="M22.5053711,14.3779297L11.1307364,21H5.7207637l-4.5697632-7.980835l10.5174561,1.4134521
		c0.0166016,0.0004883,0.0336914,0.0004883,0.050293,0.0004883c0.3691406,0,0.7275391-0.1000977,1.0390625-0.2900391
		c0.3149414-0.1918945,0.5693359-0.4677734,0.7382813-0.7998047c0.0170898-0.0283203,0.03125-0.0581055,0.0424805-0.0898438
		l3.5736094-10.0751343c0.1225586,0.0834961,0.230957,0.1863403,0.307251,0.3197632l5.4472656,9.5141602
		C23.140625,13.4897461,22.9780273,14.1025391,22.5053711,14.3779297z"/>
	<linearGradient id="SVGID_1_" gradientUnits="userSpaceOnUse" x1="12.8861732" y1="7.4042926" x2="21.2057819" y2="15.7239008">
		<stop  offset="0" style="stop-color:#010101;stop-opacity:0.1"/>
		<stop  offset="1" style="stop-color:#010101;stop-opacity:0"/>
	</linearGradient>
	<path fill="url(#SVGID_1_)" d="M22.8666992,13.012207l-5.4472656-9.5141602
		c-0.0762939-0.1334229-0.1846924-0.2362671-0.307251-0.3197632L13.5385733,13.253418
		c-0.0112305,0.0317383-0.0253906,0.0615234-0.0424805,0.0898438c-0.1689453,0.3320313-0.4233398,0.6079102-0.7382813,0.7998047
		c-0.3115234,0.1899414-0.6699219,0.2900391-1.0390625,0.2900391c-0.0166016,0-0.0336914,0-0.050293-0.0004883l-0.1854858-0.0249023
		L11.499999,14.5h10.7957163l0.2096558-0.1220703C22.9780273,14.1025391,23.140625,13.4897461,22.8666992,13.012207z"/>
	<linearGradient id="SVGID_2_" gradientUnits="userSpaceOnUse" x1="1.7488246" y1="8.2941217" x2="23.4837971" y2="18.429306">
		<stop  offset="0" style="stop-color:#FFFFFF;stop-opacity:0.2"/>
		<stop  offset="1" style="stop-color:#FFFFFF;stop-opacity:0"/>
	</linearGradient>
	<path fill="url(#SVGID_2_)" d="M23.7348633,12.5156374l-5.4472656-9.5136576
		c-0.265625-0.4643312-0.6953125-0.7958565-1.2099609-0.9335446c-0.1911449-0.0510664-0.385561-0.0737793-0.5780029-0.0673792
		c-0.322752,0.0107338-0.6399546,0.1020212-0.9268808,0.2690289L0.9916985,10.7584066
		c-0.637769,0.3713808-0.9946762,1.0486937-0.9916992,1.7427053c0.0014378,0.3351965,0.0875056,0.6742887,0.2651367,0.9846897
		l4.3028564,7.5142517H2.4999993c-0.2763672,0-0.5,0.2236195-0.5,0.4999733c0,0.2763519,0.2236328,0.4999733,0.5,0.4999733h19
		c0.2763672,0,0.5-0.2236214,0.5-0.4999733c0-0.2763538-0.2236328-0.4999733-0.5-0.4999733h-8.3818369l9.8901377-5.7575092
		C23.6463985,14.8711634,24.0030861,14.1938505,24,13.4999886C23.9985085,13.1648645,23.9124947,12.8258791,23.7348633,12.5156374z"
		/>
</g>
<g>
</g>
<g>
</g>
<g>
</g>
<g>
</g>
<g>
</g>
<g>
</g>
<g>
</g>
<g>
</g>
<g>
</g>
<g>
</g>
<g>
</g>
<g>
</g>
<g>
</g>
<g>
</g>
<g>
</g>
</svg>
